<mxfile host="app.diagrams.net" modified="2024-04-25T15:23:44.944Z" agent="Mozilla/5.0 (X11; Linux x86_64) AppleWebKit/537.36 (KHTML, like Gecko) Chrome/124.0.0.0 Safari/537.36" version="24.2.8" etag="U4vNRVQ4L1Sq8MYXUCJ2" type="github">
  <diagram name="Page-1" id="srxCAJhNjFU9Fo69hTc3">
    <mxGraphModel>
      <root>
        <mxCell id="0" />
        <mxCell id="1" parent="0" />
      </root>
    </mxGraphModel>
  </diagram>
</mxfile>
